{"accessors" : [{"bufferView" : 0, "byteOffset" : 0, "componentType" : 5123, "count" : 36, "type" : "SCALAR", "max" : [23], "min" : [0]}, {"bufferView" : 1, "byteOffset" : 0, "componentType" : 5126, "count" : 24, "type" : "VEC3", "max" : [1, 1, 1], "min" : [-1, -1, -1], "name" : "POSITION"}, {"bufferView" : 1, "byteOffset" : 12, "componentType" : 5126, "count" : 24, "type" : "VEC3", "max" : [1.0000044107437134, 1.0000044107437134, 1.0000044107437134], "min" : [-1.0000044107437134, -1.0000044107437134, -1.0000044107437134], "name" : "NORMAL"}, {"bufferView" : 1, "byteOffset" : 24, "componentType" : 5126, "count" : 24, "type" : "VEC2", "max" : [0.875, 2], "min" : [0.125, 1], "name" : "TEXCOORD_0"}, {"bufferView" : 2, "byteOffset" : 0, "componentType" : 5126, "normalized" : false, "count" : 250, "type" : "SCALAR", "max" : [10.416666984558105], "min" : [0.0416666679084301]}, {"bufferView" : 2, "byteOffset" : 1000, "componentType" : 5126, "normalized" : false, "count" : 250, "type" : "VEC3", "max" : [5.909073829650879, 3.5169789791107178, 8.303900718688965], "min" : [-10.627511978149414, 0, -0]}, {"bufferView" : 3, "byteOffset" : 0, "componentType" : 5126, "normalized" : false, "count" : 250, "type" : "SCALAR", "max" : [10.416666984558105], "min" : [0.0416666679084301]}, {"bufferView" : 3, "byteOffset" : 1000, "componentType" : 5126, "normalized" : false, "count" : 250, "type" : "VEC4", "max" : [0, 0, 0.9998918771743774, 1], "min" : [0, 0, -0.9993060827255249, 0.014708251692354679]}, {"bufferView" : 4, "byteOffset" : 0, "componentType" : 5126, "normalized" : false, "count" : 2, "type" : "SCALAR", "max" : [10.416666984558105], "min" : [0.0416666679084301]}, {"bufferView" : 4, "byteOffset" : 8, "componentType" : 5126, "normalized" : false, "count" : 2, "type" : "VEC3", "max" : [1, 1, 1], "min" : [1, 1, 1]}], "animations" : [{"channels" : [{"sampler" : 0, "target" : {"node" : 0, "path" : "translation"}}, {"sampler" : 1, "target" : {"node" : 0, "path" : "rotation"}}, {"sampler" : 2, "target" : {"node" : 0, "path" : "scale"}}], "samplers" : [{"input" : 4, "interpolation" : "LINEAR", "output" : 5}, {"input" : 6, "interpolation" : "LINEAR", "output" : 7}, {"input" : 8, "interpolation" : "LINEAR", "output" : 9}], "name" : "CubeAction"}], "asset" : {"generator" : "Aspose.3D 24.6.0", "version" : "2.0"}, "buffers" : [{"uri" : "data:application/octet-stream;base64,", "byteLength" : 9892}], "bufferViews" : [{"buffer" : 0, "byteOffset" : 0, "byteLength" : 72, "target" : 34963}, {"buffer" : 0, "byteOffset" : 76, "byteLength" : 768, "byteStride" : 32, "target" : 34962}, {"buffer" : 0, "byteOffset" : 848, "byteLength" : 4000}, {"buffer" : 0, "byteOffset" : 4852, "byteLength" : 5000}, {"buffer" : 0, "byteOffset" : 9856, "byteLength" : 32}], "meshes" : [{"primitives" : [{"attributes" : {"POSITION" : 1, "NORMAL" : 2, "TEXCOORD_0" : 3}, "indices" : 0, "mode" : 4}]}], "nodes" : [{"mesh" : 0, "name" : "Cube"}], "scene" : 0, "scenes" : [{"nodes" : [0]}]}